<svg width="88" height="60" viewBox="0 0 88 60" fill="none" xmlns="http://www.w3.org/2000/svg">
<path d="M48.7939 43.176C48.5419 44.16 48.2659 45.084 47.9659 45.936C46.0159 45.762 44.0059 45.666 41.9779 45.666C40.0279 45.666 38.1259 45.75 36.2779 45.9C35.9839 45.06 35.7139 44.142 35.4619 43.176H33.9559C34.2019 44.178 34.4779 45.138 34.7779 46.044C32.1799 46.314 29.6059 46.788 27.0859 47.46C25.6219 46.2 24.3199 44.76 23.2099 43.176H21.4399C28.7119 54.6 43.8739 57.972 55.3039 50.694C58.3339 48.768 60.9019 46.2 62.8279 43.17H61.0519C59.9239 44.778 58.5979 46.242 57.0979 47.52C54.5959 46.842 52.0459 46.362 49.4659 46.08C49.7719 45.162 50.0539 44.184 50.2999 43.17L48.7939 43.176ZM28.5319 48.606C30.7579 48.078 33.0199 47.7 35.2999 47.472C36.2059 49.782 37.3939 51.684 38.5699 52.878C34.9399 52.254 31.5019 50.796 28.5319 48.606ZM42.1339 53.166C40.2679 53.166 38.3419 50.976 36.8299 47.334C38.5159 47.202 40.2439 47.13 41.9839 47.13C43.8319 47.13 45.6559 47.208 47.4319 47.358C45.9139 50.982 43.9879 53.166 42.1339 53.166ZM55.6519 48.66C52.6999 50.82 49.2919 52.26 45.6919 52.878C46.8619 51.69 48.0499 49.8 48.9499 47.502C51.2119 47.736 53.4499 48.126 55.6519 48.66Z" fill="white"/>
<path d="M61.0459 16.824H62.8219C55.5499 5.39998 40.3879 2.02798 28.9579 9.30598C25.9339 11.232 23.3659 13.8 21.4399 16.824H23.2159C24.3439 15.216 25.6699 13.752 27.1699 12.474C29.6719 13.152 32.2219 13.632 34.8019 13.914C34.4959 14.832 34.2139 15.81 33.9679 16.824H35.4739C35.7259 15.84 36.0019 14.916 36.3019 14.064C38.2519 14.238 40.2619 14.334 42.2959 14.334C44.2459 14.334 46.1479 14.25 47.9959 14.1C48.2899 14.94 48.5599 15.858 48.8119 16.824H50.2999C50.0539 15.822 49.7779 14.862 49.4779 13.956C52.0759 13.686 54.6439 13.212 57.1699 12.54C58.6339 13.806 59.9359 15.24 61.0459 16.824ZM35.3119 12.498C33.0559 12.264 30.8179 11.874 28.6099 11.34C31.5619 9.17998 34.9699 7.73998 38.5699 7.12198C37.3999 8.30998 36.2119 10.2 35.3119 12.498ZM42.2839 12.87C40.4359 12.87 38.6119 12.792 36.8359 12.642C38.3479 9.01798 40.2679 6.83398 42.1279 6.83398C43.9939 6.83398 45.9199 9.02398 47.4319 12.666C45.7519 12.798 44.0239 12.87 42.2839 12.87ZM48.9619 12.528C48.0559 10.218 46.8679 8.31598 45.6919 7.12198C49.3279 7.74598 52.7659 9.20998 55.7299 11.394C53.5039 11.922 51.2419 12.3 48.9619 12.528Z" fill="white"/>
<path d="M6.50012 41V37.9025L8.8279 37.419V22.5962L6.50012 22.1126V19H16.5512V22.1126L14.2234 22.5962V37.419L16.5512 37.9025V41H6.50012Z" fill="white"/>
<path d="M18.2161 41V37.9025L19.7886 37.6758L26.479 19H32.337L39.0428 37.6758L40.6152 37.9025V41H32.2291V37.9025L33.6935 37.6305L33.0153 35.2431H25.8007L25.1532 37.6305L26.6177 37.9025V41H18.2161ZM26.9415 31.5261H31.8591L29.67 24.8626L29.4234 24.092H29.3309L29.0688 24.9382L26.9415 31.5261Z" fill="white"/>
<path d="M46.6798 41V37.9025L49.023 37.419V23.1099H45.5544L45.4157 25.4821H41.3305V19H62.188V25.4821H58.0566L57.9333 23.1099H54.4339V37.419L56.7771 37.9025V41H46.6798Z" fill="white"/>
<path d="M64.0165 41V37.9025L66.3443 37.419V22.5962L64.0165 22.1126V19H82.5V25.4821H78.4148L78.3069 23.0797H71.7552V28.1717H79.386V32.2212H71.7552V37.419L74.083 37.9025V41H64.0165Z" fill="white"/>
</svg>
