<svg width="60" height="60" viewBox="0 0 60 60" fill="none" xmlns="http://www.w3.org/2000/svg">
<g clip-path="url(#clip0_631_110)">
<path d="M36.2939 43.176C36.0419 44.16 35.7659 45.084 35.4659 45.936C33.5159 45.762 31.5059 45.666 29.4779 45.666C27.5279 45.666 25.6259 45.75 23.7779 45.9C23.4839 45.06 23.2139 44.142 22.9619 43.176H21.4559C21.7019 44.178 21.9779 45.138 22.2779 46.044C19.6799 46.314 17.1059 46.788 14.5859 47.46C13.1219 46.2 11.8199 44.76 10.7099 43.176H8.93994C16.2119 54.6 31.3739 57.972 42.8039 50.694C45.8339 48.768 48.4019 46.2 50.3279 43.17H48.5519C47.4239 44.778 46.0979 46.242 44.5979 47.52C42.0959 46.842 39.5459 46.362 36.9659 46.08C37.2719 45.162 37.5539 44.184 37.7999 43.17L36.2939 43.176ZM16.0319 48.606C18.2579 48.078 20.5199 47.7 22.7999 47.472C23.7059 49.782 24.8939 51.684 26.0699 52.878C22.4399 52.254 19.0019 50.796 16.0319 48.606ZM29.6339 53.166C27.7679 53.166 25.8419 50.976 24.3299 47.334C26.0159 47.202 27.7439 47.13 29.4839 47.13C31.3319 47.13 33.1559 47.208 34.9319 47.358C33.4139 50.982 31.4879 53.166 29.6339 53.166ZM43.1519 48.66C40.1999 50.82 36.7919 52.26 33.1919 52.878C34.3619 51.69 35.5499 49.8 36.4499 47.502C38.7119 47.736 40.9499 48.126 43.1519 48.66Z" fill="white"/>
<path d="M34.9559 25.704V19.314H29.8199C28.2419 19.092 26.6579 18.966 25.0619 18.936C19.1459 18.936 15.0959 21.102 15.0959 25.884C15.0959 35.298 28.6619 31.194 28.6619 34.716C28.6619 35.796 27.5819 36.402 24.9119 36.402C22.8959 36.402 21.1379 35.976 20.3819 35.574V34.212H15.2459V40.602H20.3819C22.0499 40.824 23.7299 40.95 25.4159 40.98C33.1919 40.98 35.7839 37.812 35.7839 33.936C35.7839 24.576 22.0919 28.878 22.0919 25.128C22.0919 24.222 23.0219 23.52 25.4159 23.52C27.2759 23.52 29.0639 23.946 29.8199 24.348V25.71L34.9559 25.704Z" fill="white"/>
<path d="M0 35.358V40.644H13.716V35.358H10.266V24.642H13.716V19.356H0V24.642H3.444V35.358H0Z" fill="white"/>
<path d="M48.5459 16.824H50.3219C43.0499 5.39998 27.8879 2.02798 16.4579 9.30598C13.4339 11.232 10.8659 13.8 8.93994 16.824H10.7159C11.8439 15.216 13.1699 13.752 14.6699 12.474C17.1719 13.152 19.7219 13.632 22.3019 13.914C21.9959 14.832 21.7139 15.81 21.4679 16.824H22.9739C23.2259 15.84 23.5019 14.916 23.8019 14.064C25.7519 14.238 27.7619 14.334 29.7959 14.334C31.7459 14.334 33.6479 14.25 35.4959 14.1C35.7899 14.94 36.0599 15.858 36.3119 16.824H37.7999C37.5539 15.822 37.2779 14.862 36.9779 13.956C39.5759 13.686 42.1439 13.212 44.6699 12.54C46.1339 13.806 47.4359 15.24 48.5459 16.824ZM22.8119 12.498C20.5559 12.264 18.3179 11.874 16.1099 11.34C19.0619 9.17998 22.4699 7.73998 26.0699 7.12198C24.8999 8.30998 23.7119 10.2 22.8119 12.498ZM29.7839 12.87C27.9359 12.87 26.1119 12.792 24.3359 12.642C25.8479 9.01798 27.7679 6.83398 29.6279 6.83398C31.4939 6.83398 33.4199 9.02398 34.9319 12.666C33.2519 12.798 31.5239 12.87 29.7839 12.87ZM36.4619 12.528C35.5559 10.218 34.3679 8.31598 33.1919 7.12198C36.8279 7.74598 40.2659 9.20998 43.2299 11.394C41.0039 11.922 38.7419 12.3 36.4619 12.528Z" fill="white"/>
<path d="M48.348 18.936C41.55 18.936 36.696 22.884 36.696 29.958C36.696 37.032 41.556 40.98 48.348 40.98C55.14 40.98 60 37.026 60 29.958C60 22.89 55.14 18.936 48.348 18.936ZM48.348 35.97C45.654 35.97 43.944 34.26 43.944 29.958C43.944 25.656 45.654 23.946 48.348 23.946C51.042 23.946 52.752 25.656 52.752 29.958C52.752 34.26 51.042 35.97 48.348 35.97Z" fill="white"/>
</g>
<defs>
<clipPath id="clip0_631_110">
<rect width="60" height="60" fill="white"/>
</clipPath>
</defs>
</svg>
