<svg width="126" height="126" viewBox="0 0 126 126" fill="none" xmlns="http://www.w3.org/2000/svg">
<g clip-path="url(#clip0_577_129)">
<path fill-rule="evenodd" clip-rule="evenodd" d="M96.5224 16.3013C95.3429 16.3013 94.3238 17.1257 94.0775 18.2792L88.9884 42.1101H12.5289C11.6164 42.1101 10.7765 42.6072 10.3374 43.4071C9.89829 44.2069 9.92983 45.1824 10.4197 45.9522L29.3079 75.6365C21.4919 77.211 15.6159 84.1082 15.6159 92.392C15.6159 101.841 23.2604 109.485 32.709 109.485C42.1576 109.485 49.8021 101.841 49.8021 92.392C49.8021 90.2937 49.425 88.2844 48.735 86.428H57.5549L70.5455 108.263C71.0506 109.112 72.0083 109.584 72.9893 109.468C73.9703 109.351 74.7906 108.667 75.0824 107.724L82.2121 84.6666C82.3417 84.2474 82.3571 83.8081 82.2654 83.391C84.2824 81.5494 85.6529 78.9986 85.9822 76.1015L92.8021 48.0307C92.852 47.904 92.8922 47.7715 92.9215 47.6339L93.089 46.8498L93.4897 45.2004C93.5345 45.0161 93.5577 44.8292 93.5602 44.6432L98.5449 21.3013H112.887C114.268 21.3013 115.387 20.182 115.387 18.8013C115.387 17.4206 114.268 16.3013 112.887 16.3013H96.5224ZM17.0828 47.1101H87.8803L81.0844 75.0823C81.0566 75.1964 81.037 75.3124 81.0256 75.4292C80.6919 78.8412 77.8492 81.4244 74.4315 81.428H74.4243H58.9765H58.9721H45.8287C43.1824 78.2639 39.4115 76.0735 35.1273 75.4683L17.0828 47.1101ZM71.967 100.874L63.3728 86.428L74.4243 86.428L74.4378 86.428H76.4339L71.967 100.874ZM20.6159 92.392C20.6159 85.7048 26.0218 80.2989 32.709 80.2989C39.3962 80.2989 44.8021 85.7048 44.8021 92.392C44.8021 99.0792 39.3962 104.485 32.709 104.485C26.0218 104.485 20.6159 99.0792 20.6159 92.392ZM48.3236 58.9114C48.3236 60.058 47.3854 60.9961 46.2388 60.9961C45.0922 60.9961 44.1541 60.058 44.1541 58.9114C44.1541 57.7648 45.0922 56.8267 46.2388 56.8267C47.3854 56.8267 48.3236 57.7648 48.3236 58.9114ZM58.0592 68.7096C58.0592 69.8562 57.1211 70.7943 55.9745 70.7943C54.8279 70.7943 53.8898 69.8562 53.8898 68.7096C53.8898 67.563 54.8279 66.6249 55.9745 66.6249C57.1211 66.6249 58.0592 67.563 58.0592 68.7096ZM64.0871 64.0786C65.2337 64.0786 66.1718 63.1405 66.1718 61.9939C66.1718 60.8473 65.2337 59.9092 64.0871 59.9092C62.9405 59.9092 62.0024 60.8473 62.0024 61.9939C62.0024 63.1405 62.9405 64.0786 64.0871 64.0786Z" fill="url(#paint0_linear_577_129)"/>
</g>
<defs>
<linearGradient id="paint0_linear_577_129" x1="10.0289" y1="35.9745" x2="96.4658" y2="45.1655" gradientUnits="userSpaceOnUse">
<stop stop-color="#336EED"/>
<stop offset="0.647656" stop-color="#12326F"/>
<stop offset="1" stop-color="#6249D6"/>
</linearGradient>
<clipPath id="clip0_577_129">
<rect width="125" height="125" fill="white" transform="translate(0.5 0.580811)"/>
</clipPath>
</defs>
</svg>
