<svg width="125" height="126" viewBox="0 0 125 126" fill="none" xmlns="http://www.w3.org/2000/svg">
<g clip-path="url(#clip0_577_88)">
<path fill-rule="evenodd" clip-rule="evenodd" d="M24.3893 63.0807C24.3893 42.0327 41.452 24.97 62.5 24.97C83.548 24.97 100.611 42.0327 100.611 63.0807C100.611 84.1287 83.548 101.191 62.5 101.191C41.452 101.191 24.3893 84.1287 24.3893 63.0807ZM62.5 18.97C38.1383 18.97 18.3893 38.719 18.3893 63.0807C18.3893 87.4424 38.1383 107.191 62.5 107.191C86.8617 107.191 106.611 87.4424 106.611 63.0807C106.611 38.719 86.8617 18.97 62.5 18.97ZM62.5 55.8265C58.4871 55.8265 55.2458 59.0677 55.2458 63.0807C55.2458 67.0936 58.4871 70.3348 62.5 70.3348C66.5129 70.3348 69.7542 67.0936 69.7542 63.0807C69.7542 59.0677 66.5129 55.8265 62.5 55.8265ZM57.2458 63.0807C57.2458 60.1723 59.5916 57.8265 62.5 57.8265C65.4084 57.8265 67.7542 60.1723 67.7542 63.0807C67.7542 65.989 65.4084 68.3348 62.5 68.3348C59.5916 68.3348 57.2458 65.989 57.2458 63.0807ZM51.7428 64.0807H31.2292V62.0807H51.7428V64.0807ZM73.2572 64.0807H93.7709V62.0807H73.2572V64.0807ZM61.5 52.3235V31.8098H63.5V52.3235H61.5ZM61.5 73.8378V94.3515H63.5V73.8378H61.5ZM54.2045 56.1994L39.6948 41.6897L41.109 40.2755L55.6187 54.7852L54.2045 56.1994ZM69.4021 71.397L83.9118 85.9067L85.326 84.4925L70.8163 69.9828L69.4021 71.397ZM69.4021 54.7852L83.9118 40.2755L85.326 41.6897L70.8163 56.1994L69.4021 54.7852ZM54.1837 69.9828L39.674 84.4925L41.0882 85.9067L55.5979 71.397L54.1837 69.9828Z" fill="url(#paint0_linear_577_88)"/>
</g>
<defs>
<linearGradient id="paint0_linear_577_88" x1="18.3893" y1="37.5955" x2="90.9435" y2="44.4189" gradientUnits="userSpaceOnUse">
<stop stop-color="#336EED"/>
<stop offset="0.647656" stop-color="#12326F"/>
<stop offset="1" stop-color="#6249D6"/>
</linearGradient>
<clipPath id="clip0_577_88">
<rect width="125" height="125" fill="white" transform="translate(0 0.580811)"/>
</clipPath>
</defs>
</svg>
