<svg width="145" height="145" viewBox="0 0 145 145" fill="none" xmlns="http://www.w3.org/2000/svg">
<path fill-rule="evenodd" clip-rule="evenodd" d="M55.3182 20.501C51.3033 20.501 48.0655 23.7561 48.0655 27.7537V30.0488H62.5709V27.7537C62.5709 23.7387 59.3158 20.501 55.3182 20.501ZM46.0655 27.7537V30.0488H37.8044C36.4237 30.0488 35.3044 31.1681 35.3044 32.5488V125.16C35.3044 126.541 36.4237 127.66 37.8044 127.66H83.4514C84.0919 127.66 84.708 127.414 85.1725 126.973L109.498 103.882C109.996 103.41 110.277 102.755 110.277 102.069V32.5488C110.277 31.1681 109.158 30.0488 107.777 30.0488H64.5709V27.7537C64.5709 22.6309 60.4171 18.501 55.3182 18.501C50.1955 18.501 46.0655 22.6548 46.0655 27.7537ZM62.5505 35.0488V46.5026C62.5505 49.3666 60.2405 51.6767 57.3764 51.6767C54.5124 51.6767 52.2024 49.3666 52.2024 46.5026V38.7364H50.2024V46.5026C50.2024 50.4712 53.4078 53.6767 57.3764 53.6767C61.345 53.6767 64.5505 50.4712 64.5505 46.5026V41.7894H64.5709V35.0488H105.277V99.5693H83.4925C82.1135 99.5693 80.995 100.686 80.9925 102.065L80.9558 122.66H40.3044V35.0488H62.5505ZM101.512 104.569H85.9881L85.9618 119.33L101.512 104.569ZM92.3419 63.0811H53.2395V61.0811H92.3419V63.0811ZM53.2395 73.3721H92.3419V71.3721H53.2395V73.3721ZM92.3419 83.6621H53.2395V81.6621H92.3419V83.6621Z" fill="url(#paint0_linear_587_143)"/>
<defs>
<linearGradient id="paint0_linear_587_143" x1="35.3044" y1="41.5469" x2="97.2497" y2="45.5481" gradientUnits="userSpaceOnUse">
<stop stop-color="#336EED"/>
<stop offset="0.647656" stop-color="#12326F"/>
<stop offset="1" stop-color="#6249D6"/>
</linearGradient>
</defs>
</svg>
