<svg width="125" height="126" viewBox="0 0 125 126" fill="none" xmlns="http://www.w3.org/2000/svg">
<g clip-path="url(#clip0_577_106)">
<path fill-rule="evenodd" clip-rule="evenodd" d="M38.0062 25.2437C38.0062 24.4979 38.5967 23.9558 39.2316 23.9558H85.8725C86.5162 23.9558 87.0979 24.4861 87.0979 25.2437V38.6459H70.1574C68.5031 36.1262 65.633 34.4834 62.4167 34.4834C57.2649 34.4834 53.0917 38.6566 53.0917 43.8084C53.0917 48.9603 57.2649 53.1334 62.4167 53.1334C65.633 53.1334 68.5031 51.4906 70.1574 48.9709H87.0979V100.918C87.0979 101.664 86.5073 102.206 85.8725 102.206H39.2316C38.5879 102.206 38.0062 101.676 38.0062 100.918V25.2437ZM92.0979 48.9709V100.918C92.0979 104.335 89.3585 107.206 85.8725 107.206H39.2316C35.7545 107.206 33.0062 104.365 33.0062 100.918V25.2437C33.0062 21.827 35.7456 18.9558 39.2316 18.9558H85.8725C89.3496 18.9558 92.0979 21.7972 92.0979 25.2437V38.6459H109.12C111.986 38.6459 114.283 40.97 114.283 43.8084C114.283 45.2421 113.717 46.5362 112.783 47.4709C111.848 48.4055 110.554 48.9709 109.12 48.9709H92.0979ZM62.4167 36.4834C58.3695 36.4834 55.0917 39.7611 55.0917 43.8084C55.0917 47.8557 58.3695 51.1334 62.4167 51.1334C65.1083 51.1334 67.4855 49.6688 68.727 47.4779L69.0143 46.9709H69.5971H109.12C110.017 46.9709 110.804 46.6205 111.368 46.0567C111.932 45.4928 112.283 44.7057 112.283 43.8084C112.283 42.0681 110.875 40.6459 109.12 40.6459H69.5971H69.0143L68.727 40.1389C67.4855 37.948 65.1083 36.4834 62.4167 36.4834ZM62.5416 69.2632C60.4758 69.2632 58.7756 70.9753 58.7756 73.1541C58.7756 73.9815 59.0409 74.7647 59.475 75.3991C59.6081 75.5936 59.6682 75.8288 59.6447 76.0633L58.4435 88.0757H66.6398L65.4385 76.0633C65.4151 75.8288 65.4752 75.5936 65.6083 75.3991C66.0437 74.7628 66.3077 74.0002 66.3077 73.1541C66.3077 70.9753 64.6074 69.2632 62.5416 69.2632ZM56.7756 73.1541C56.7756 69.9217 59.321 67.2632 62.5416 67.2632C65.7622 67.2632 68.3077 69.9217 68.3077 73.1541C68.3077 74.2906 67.9893 75.3283 67.4631 76.2093L68.7398 88.9762C68.7679 89.2573 68.6758 89.5372 68.4862 89.7467C68.2966 89.9562 68.0273 90.0757 67.7448 90.0757H57.3385C57.056 90.0757 56.7866 89.9562 56.597 89.7467C56.4075 89.5372 56.3154 89.2573 56.3435 88.9762L57.6202 76.2088C57.0931 75.3228 56.7756 74.2704 56.7756 73.1541Z" fill="url(#paint0_linear_577_106)"/>
</g>
<defs>
<linearGradient id="paint0_linear_577_106" x1="33.0062" y1="37.5874" x2="99.9377" y2="43.3846" gradientUnits="userSpaceOnUse">
<stop stop-color="#336EED"/>
<stop offset="0.647656" stop-color="#12326F"/>
<stop offset="1" stop-color="#6249D6"/>
</linearGradient>
<clipPath id="clip0_577_106">
<rect width="125" height="125" fill="white" transform="translate(0 0.580811)"/>
</clipPath>
</defs>
</svg>
