<svg width="125" height="126" viewBox="0 0 125 126" fill="none" xmlns="http://www.w3.org/2000/svg">
<g clip-path="url(#clip0_577_141)">
<path fill-rule="evenodd" clip-rule="evenodd" d="M26.0132 21.4558C26.0132 20.0751 27.1325 18.9558 28.5132 18.9558H96.5077C97.8884 18.9558 99.0077 20.0751 99.0077 21.4558V104.706C99.0077 106.087 97.8884 107.206 96.5077 107.206H28.5132C27.1325 107.206 26.0132 106.087 26.0132 104.706V21.4558ZM31.0132 23.9558V102.206H94.0077V23.9558H31.0132ZM58.5916 61.0402L69.3056 48.1095L67.7656 46.8334L55.6943 61.4022L54.3371 63.0402H56.4644H66.5755L55.6547 78.1032L57.274 79.2772L69.3452 62.6272L70.4958 61.0402H68.5356H58.5916ZM41.6875 32.9434C41.1352 32.9434 40.6875 33.3911 40.6875 33.9434V92.2184C40.6875 92.7707 41.1352 93.2184 41.6875 93.2184H83.3125C83.8648 93.2184 84.3125 92.7707 84.3125 92.2184V33.9434C84.3125 33.3911 83.8648 32.9434 83.3125 32.9434H41.6875ZM42.6875 91.2184V34.9434H82.3125V91.2184H42.6875Z" fill="url(#paint0_linear_577_141)"/>
</g>
<defs>
<linearGradient id="paint0_linear_577_141" x1="26.0132" y1="37.5874" x2="86.2113" y2="42.2701" gradientUnits="userSpaceOnUse">
<stop stop-color="#336EED"/>
<stop offset="0.647656" stop-color="#12326F"/>
<stop offset="1" stop-color="#6249D6"/>
</linearGradient>
<clipPath id="clip0_577_141">
<rect width="125" height="125" fill="white" transform="translate(0 0.580811)"/>
</clipPath>
</defs>
</svg>
