<svg width="560" height="138" viewBox="0 0 560 138" fill="none" xmlns="http://www.w3.org/2000/svg">
<g clip-path="url(#clip0_738_545)">
<path d="M560 0H0V138H560V0Z" fill="#163557"/>
<path d="M329.458 111.678C332.685 111.678 335.3 109.069 335.3 105.851C335.3 102.632 332.685 100.023 329.458 100.023C326.232 100.023 323.616 102.632 323.616 105.851C323.616 109.069 326.232 111.678 329.458 111.678Z" fill="#0483C6"/>
<path d="M320.794 94.6181C324.021 94.6181 326.636 92.0091 326.636 88.7907C326.636 85.5723 324.021 82.9633 320.794 82.9633C317.568 82.9633 314.952 85.5723 314.952 88.7907C314.952 92.0091 317.568 94.6181 320.794 94.6181Z" fill="#0483C6"/>
<path d="M338.179 94.6744C341.405 94.6744 344.021 92.0653 344.021 88.8469C344.021 85.6286 341.405 83.0195 338.179 83.0195C334.952 83.0195 332.337 85.6286 332.337 88.8469C332.337 92.0653 334.952 94.6744 338.179 94.6744Z" fill="#0483C6"/>
<path d="M313.09 77.5582C316.316 77.5582 318.932 74.9491 318.932 71.7307C318.932 68.5123 316.316 65.9033 313.09 65.9033C309.863 65.9033 307.248 68.5123 307.248 71.7307C307.248 74.9491 309.863 77.5582 313.09 77.5582Z" fill="#0483C6"/>
<path d="M329.543 77.53C332.769 77.53 335.385 74.9209 335.385 71.7025C335.385 68.4841 332.769 65.8751 329.543 65.8751C326.317 65.8751 323.701 68.4841 323.701 71.7025C323.701 74.9209 326.317 77.53 329.543 77.53Z" fill="white"/>
<path d="M345.827 77.53C349.053 77.53 351.669 74.9209 351.669 71.7025C351.669 68.4841 349.053 65.8751 345.827 65.8751C342.6 65.8751 339.985 68.4841 339.985 71.7025C339.985 74.9209 342.6 77.53 345.827 77.53Z" fill="#0483C6"/>
<path d="M298.245 41.8054C302.547 41.8054 306.034 38.3267 306.034 34.0355C306.034 29.7443 302.547 26.2656 298.245 26.2656C293.943 26.2656 290.456 29.7443 290.456 34.0355C290.456 38.3267 293.943 41.8054 298.245 41.8054Z" fill="#0483C6"/>
<path d="M360.841 41.7772C365.142 41.7772 368.63 38.2985 368.63 34.0073C368.63 29.7161 365.142 26.2374 360.841 26.2374C356.539 26.2374 353.052 29.7161 353.052 34.0073C353.052 38.2985 356.539 41.7772 360.841 41.7772Z" fill="#0483C6"/>
<path d="M340.013 41.7772C344.315 41.7772 347.802 38.2985 347.802 34.0073C347.802 29.7161 344.315 26.2374 340.013 26.2374C335.711 26.2374 332.224 29.7161 332.224 34.0073C332.224 38.2985 335.711 41.7772 340.013 41.7772Z" fill="white"/>
<path d="M319.186 41.7772C323.487 41.7772 326.975 38.2985 326.975 34.0073C326.975 29.7161 323.487 26.2374 319.186 26.2374C314.884 26.2374 311.396 29.7161 311.396 34.0073C311.396 38.2985 314.884 41.7772 319.186 41.7772Z" fill="white"/>
<path d="M329.571 59.3721C333.234 59.3721 336.203 56.4101 336.203 52.7564C336.203 49.1027 333.234 46.1407 329.571 46.1407C325.908 46.1407 322.939 49.1027 322.939 52.7564C322.939 56.4101 325.908 59.3721 329.571 59.3721Z" fill="white"/>
<path d="M352.6 59.3721C356.263 59.3721 359.232 56.4101 359.232 52.7564C359.232 49.1027 356.263 46.1407 352.6 46.1407C348.937 46.1407 345.968 49.1027 345.968 52.7564C345.968 56.4101 348.937 59.3721 352.6 59.3721Z" fill="#0483C6"/>
<path d="M306.486 59.4566C310.149 59.4566 313.118 56.4946 313.118 52.8409C313.118 49.1872 310.149 46.2252 306.486 46.2252C302.823 46.2252 299.854 49.1872 299.854 52.8409C299.854 56.4946 302.823 59.4566 306.486 59.4566Z" fill="#0483C6"/>
<path d="M213.948 36.6537V26.2094H144.381V36.9633H199.696L144.381 101.093V111.847H213.948V101.093H159.819L213.948 36.6537Z" fill="white"/>
<path d="M134.617 26.2374H123.893V111.819H134.617V26.2374Z" fill="white"/>
<path d="M26.0203 26.1812H39.482L69.8202 95.4345L101.344 26.1812H114.805L76.3675 111.706L62.9623 111.763L26.0203 26.1812Z" fill="white"/>
<path d="M222.866 111.847H236.355L266.835 42.4811L298.443 111.847H311.961L273.382 26.2657L260.005 26.2094L222.866 111.847Z" fill="white"/>
<path d="M511.657 111.594L481.431 69.5912L533.303 26.2093L518.373 26.1812L465.232 69.0845L496.389 111.594H511.657Z" fill="white"/>
<path d="M479.23 26.2094H465.797L428.77 111.903H442.034L479.23 26.2094Z" fill="white"/>
<path d="M386.212 26.2938L349.016 111.903H362.59L395.045 36.9351H438.281L405.854 111.763L419.231 111.706L456.371 26.1812L386.212 26.2938Z" fill="white"/>
</g>
<defs>
<clipPath id="clip0_738_545">
<rect width="560" height="138" fill="white"/>
</clipPath>
</defs>
</svg>
