<svg width="257" height="44" viewBox="0 0 257 44" fill="none" xmlns="http://www.w3.org/2000/svg">
<path d="M153.935 43.6483C155.562 43.6483 156.881 42.3249 156.881 40.6924C156.881 39.0599 155.562 37.7364 153.935 37.7364C152.309 37.7364 150.99 39.0599 150.99 40.6924C150.99 42.3249 152.309 43.6483 153.935 43.6483Z" fill="#0483C6"/>
<path d="M149.567 34.9947C151.194 34.9947 152.512 33.6713 152.512 32.0388C152.512 30.4062 151.194 29.0828 149.567 29.0828C147.941 29.0828 146.622 30.4062 146.622 32.0388C146.622 33.6713 147.941 34.9947 149.567 34.9947Z" fill="#0483C6"/>
<path d="M158.332 35.0233C159.958 35.0233 161.277 33.6998 161.277 32.0673C161.277 30.4348 159.958 29.1114 158.332 29.1114C156.705 29.1114 155.387 30.4348 155.387 32.0673C155.387 33.6998 156.705 35.0233 158.332 35.0233Z" fill="#0483C6"/>
<path d="M145.683 26.3411C147.31 26.3411 148.628 25.0177 148.628 23.3852C148.628 21.7526 147.31 20.4292 145.683 20.4292C144.056 20.4292 142.738 21.7526 142.738 23.3852C142.738 25.0177 144.056 26.3411 145.683 26.3411Z" fill="#0483C6"/>
<path d="M153.978 26.3268C155.605 26.3268 156.923 25.0034 156.923 23.3709C156.923 21.7383 155.605 20.4149 153.978 20.4149C152.351 20.4149 151.033 21.7383 151.033 23.3709C151.033 25.0034 152.351 26.3268 153.978 26.3268Z" fill="white"/>
<path d="M162.188 26.3268C163.814 26.3268 165.133 25.0034 165.133 23.3709C165.133 21.7383 163.814 20.4149 162.188 20.4149C160.561 20.4149 159.242 21.7383 159.242 23.3709C159.242 25.0034 160.561 26.3268 162.188 26.3268Z" fill="#0483C6"/>
<path d="M138.199 8.20563C140.368 8.20563 142.126 6.44107 142.126 4.26438C142.126 2.08769 140.368 0.323132 138.199 0.323132C136.03 0.323132 134.272 2.08769 134.272 4.26438C134.272 6.44107 136.03 8.20563 138.199 8.20563Z" fill="#0483C6"/>
<path d="M169.757 8.19135C171.926 8.19135 173.684 6.42679 173.684 4.2501C173.684 2.07341 171.926 0.308853 169.757 0.308853C167.588 0.308853 165.83 2.07341 165.83 4.2501C165.83 6.42679 167.588 8.19135 169.757 8.19135Z" fill="#0483C6"/>
<path d="M159.257 8.19135C161.426 8.19135 163.184 6.42679 163.184 4.2501C163.184 2.07341 161.426 0.308853 159.257 0.308853C157.088 0.308853 155.33 2.07341 155.33 4.2501C155.33 6.42679 157.088 8.19135 159.257 8.19135Z" fill="white"/>
<path d="M148.756 8.19135C150.925 8.19135 152.683 6.42679 152.683 4.2501C152.683 2.07341 150.925 0.308853 148.756 0.308853C146.587 0.308853 144.829 2.07341 144.829 4.2501C144.829 6.42679 146.587 8.19135 148.756 8.19135Z" fill="white"/>
<path d="M153.992 17.1163C155.839 17.1163 157.336 15.6138 157.336 13.7605C157.336 11.9072 155.839 10.4047 153.992 10.4047C152.146 10.4047 150.648 11.9072 150.648 13.7605C150.648 15.6138 152.146 17.1163 153.992 17.1163Z" fill="white"/>
<path d="M165.602 17.1163C167.449 17.1163 168.946 15.6138 168.946 13.7605C168.946 11.9072 167.449 10.4047 165.602 10.4047C163.756 10.4047 162.259 11.9072 162.259 13.7605C162.259 15.6138 163.756 17.1163 165.602 17.1163Z" fill="#0483C6"/>
<path d="M142.353 17.1591C144.2 17.1591 145.697 15.6567 145.697 13.8033C145.697 11.95 144.2 10.4476 142.353 10.4476C140.507 10.4476 139.01 11.95 139.01 13.8033C139.01 15.6567 140.507 17.1591 142.353 17.1591Z" fill="#0483C6"/>
<path d="M95.6986 5.59241V0.294575H60.6257V5.74949H88.5133L60.6257 38.2791V43.734H95.6986V38.2791H68.4086L95.6986 5.59241Z" fill="white"/>
<path d="M55.7027 0.308853H50.2959V43.7197H55.7027V0.308853Z" fill="white"/>
<path d="M0.951935 0.280293H7.73886L23.0343 35.4088L38.9274 0.280293H45.7144L26.3353 43.6626L19.5769 43.6912L0.951935 0.280293Z" fill="white"/>
<path d="M100.195 43.734H106.996L122.363 8.54835L138.298 43.734H145.114L125.663 0.323134L118.919 0.294575L100.195 43.734Z" fill="white"/>
<path d="M245.794 43.6055L230.555 22.2999L256.707 0.294573L249.18 0.280293L222.388 22.0428L238.096 43.6055H245.794Z" fill="white"/>
<path d="M229.445 0.294575H222.672L204.005 43.7625H210.692L229.445 0.294575Z" fill="white"/>
<path d="M182.548 0.337412L163.796 43.7626H170.639L187.002 5.73521H208.8L192.451 43.6912L199.196 43.6626L217.92 0.280293L182.548 0.337412Z" fill="white"/>
</svg>
