<svg width="125" height="126" viewBox="0 0 125 126" fill="none" xmlns="http://www.w3.org/2000/svg">
<path fill-rule="evenodd" clip-rule="evenodd" d="M29.9431 21.6721C28.5623 21.6721 27.4431 22.7914 27.4431 24.1721V105.25C27.4431 106.631 28.5623 107.75 29.9431 107.75H96.1638C97.5445 107.75 98.6638 106.631 98.6638 105.25V24.1721C98.6638 22.7914 97.5445 21.6721 96.1638 21.6721H29.9431ZM32.4431 43.1377V26.6721H93.6638V43.1377H32.4431ZM32.4431 45.1377V102.75H93.6638V45.1377H32.4431ZM73.8465 37.8337C74.9614 37.8337 75.8735 36.9216 75.8735 35.8067C75.8735 34.6919 74.9614 33.7798 73.8465 33.7798C72.7317 33.7798 71.8196 34.6919 71.8196 35.8067C71.8196 36.9216 72.7317 37.8337 73.8465 37.8337ZM83.2923 37.8337C84.4071 37.8337 85.3193 36.9216 85.3193 35.8068C85.3193 34.6919 84.4071 33.7798 83.2923 33.7798C82.1775 33.7798 81.2654 34.6919 81.2654 35.8068C81.2654 36.9216 82.1775 37.8337 83.2923 37.8337ZM63.0432 56.9143C54.0801 56.9143 46.8141 64.1803 46.8141 73.1434C46.8141 82.1066 54.0801 89.3726 63.0432 89.3726C72.0063 89.3726 79.2724 82.1066 79.2724 73.1434C79.2724 64.1803 72.0063 56.9143 63.0432 56.9143ZM44.8141 73.1434C44.8141 63.0758 52.9756 54.9143 63.0432 54.9143C73.1109 54.9143 81.2724 63.0758 81.2724 73.1434C81.2724 83.2111 73.1109 91.3726 63.0432 91.3726C52.9756 91.3726 44.8141 83.2111 44.8141 73.1434Z" fill="url(#paint0_linear_577_116)"/>
<defs>
<linearGradient id="paint0_linear_577_116" x1="27.4431" y1="39.8452" x2="86.1781" y2="44.4155" gradientUnits="userSpaceOnUse">
<stop stop-color="#336EED"/>
<stop offset="0.647656" stop-color="#12326F"/>
<stop offset="1" stop-color="#6249D6"/>
</linearGradient>
</defs>
</svg>
